:SAMPLES-PER-SECOND 30
:FULLY-SPECIFIED
:DEGREES
540
root  -43.6377 39.343 -28.8935 2.8147 18.9391 7.8105
RightUpLeg  0.332286 -13.1855 -33.7525
RightLeg  24.7454 -14.7456 -7.44841
RightFoot  11.5237 -2.6151 13.2426
RightToes  0.00048216 0.542163 -0.142577
Spine  13.4775 -0.671913 0.95446
Spine1  2.23038 0.309246 -5.12365
HEad  4.66904 19.9939 -4.62277
LeftShoulder1  7.50554 -10.7483 -45.9115
LeftArm  -12.7155 16.5381 -26.0511
LeftForeArm  22.7786 -21.7412 -3.64966
LeftHand  -0.25398 0.0180481 5.50724
RightShoulder  4.40298 7.88681 32.7127
RightArm  -6.09584 -25.1913 32.3977
RightForeArm  -6.59965 22.9822 5.28729
RightHand  -0.672343 -0.549047 -16.0417
LeftUpLeg  -17.2092 30.7526 -5.14166
LeftLeg  26.0315 8.97712 5.09037
LeftFoot  -7.51434 0.0269441 0.525872
LeftToes  1.06244e-005 4.65854e-005 -8.18505e-006
541
root  -42.6262 39.412 -28.6935 2.23375 21.1318 8.0071
RightUpLeg  -3.17767 -9.9144 -32.4372
RightLeg  32.6989 -11.5602 -8.04148
RightFoot  12.3978 -1.40572 7.01662
RightToes  0.00048216 0.542163 -0.142577
Spine  14.657 -0.70975 -0.575021
Spine1  2.48953 -0.250743 -3.54894
HEad  5.14434 19 -5.2514
LeftShoulder1  7.59059 -10.8653 -46.0585
LeftArm  -11.7691 14.9693 -26.2803
LeftForeArm  20.6169 -18.7154 -3.85466
LeftHand  -0.25398 0.0180481 5.50724
RightShoulder  4.40176 7.87141 32.7542
RightArm  -6.88884 -24.5899 33.0874
RightForeArm  -5.83742 24.1184 5.44549
RightHand  -0.633651 -0.796982 -15.9025
LeftUpLeg  -15.1717 28.9281 -6.01107
LeftLeg  25.7362 8.97915 5.03502
LeftFoot  -8.96587 0.0254887 1.3475
LeftToes  1.06244e-005 4.65854e-005 -8.18505e-006
542
root  -41.7347 39.5458 -28.4039 1.78957 23.6877 7.86867
RightUpLeg  -6.36895 -9.02302 -29.8437
RightLeg  39.5637 -6.44319 -5.96499
RightFoot  9.45497 -0.950055 5.56601
RightToes  0.00048216 0.542163 -0.142577
Spine  15.1764 -0.896062 -2.08436
Spine1  3.23138 -1.07241 -1.60154
HEad  5.61156 17.9515 -5.4213
LeftShoulder1  7.72794 -11.0896 -46.177
LeftArm  -11.37 13.0368 -26.2776
LeftForeArm  19.9537 -15.1398 -4.45777
LeftHand  -0.25398 0.0180481 5.50724
RightShoulder  4.37566 7.83907 32.6344
RightArm  -7.24244 -23.6332 34.2554
RightForeArm  -4.8331 25.572 5.73196
RightHand  -0.670808 -0.642608 -16.3069
LeftUpLeg  -13.003 27.4109 -6.33441
LeftLeg  24.7162 8.178 4.47532
LeftFoot  -9.90303 0.0372785 1.74075
LeftToes  1.06244e-005 4.65854e-005 -8.18505e-006
543
root  -40.88 39.7598 -28.0233 1.60896 26.0271 7.46735
RightUpLeg  -9.64622 -9.06884 -26.0375
RightLeg  44.859 -4.62095 -5.2654
RightFoot  6.21642 -0.892028 6.04286
RightToes  0.00048216 0.542163 -0.142577
Spine  15.1334 -1.14237 -3.06573
Spine1  3.88419 -1.79978 -0.0299461
HEad  6.29682 16.7043 -4.86937
LeftShoulder1  7.82824 -11.3203 -46.0464
LeftArm  -11.2106 11.3642 -26.2345
LeftForeArm  21.3503 -12.0971 -5.05891
LeftHand  -0.25398 0.0180481 5.50724
RightShoulder  4.34174 7.77254 32.5612
RightArm  -6.80067 -22.98 35.3945
RightForeArm  -3.7071 27.7271 6.18048
RightHand  -0.684008 -0.611794 -16.53
LeftUpLeg  -10.537 26.5008 -6.16465
LeftLeg  22.7873 7.32915 3.52524
LeftFoot  -10.6292 0.0537827 1.61462
LeftToes  1.06244e-005 4.65854e-005 -8.18505e-006
544
root  -40.0237 40.0258 -27.5869 1.56067 27.6391 6.85101
RightUpLeg  -13.2707 -8.90008 -21.299
RightLeg  47.9956 -5.93099 -7.33639
RightFoot  3.88843 -0.69911 5.40257
RightToes  0.00048216 0.542163 -0.142577
Spine  15.0609 -1.36327 -3.58407
Spine1  3.91917 -2.31292 1.18452
HEad  7.009 15.7794 -3.98757
LeftShoulder1  7.77826 -11.3753 -45.5675
LeftArm  -10.8937 10.6407 -26.4464
LeftForeArm  23.3214 -10.5825 -5.34111
LeftHand  -0.25398 0.0180481 5.50724
RightShoulder  4.32982 7.73516 32.5831
RightArm  -5.52183 -22.699 36.165
RightForeArm  -1.3341 30.5244 6.7448
RightHand  -0.571368 -1.19686 -15.6055
LeftUpLeg  -7.58772 23.5453 -5.26954
LeftLeg  20.0972 9.26821 2.19792
LeftFoot  -10.8873 0.0600796 1.36975
LeftToes  1.06244e-005 4.65854e-005 -8.18505e-006
545
root  -39.1788 40.2516 -27.1255 1.41762 28.5571 6.17958
RightUpLeg  -16.851 -8.63755 -16.2794
RightLeg  48.6772 -7.40792 -9.25517
RightFoot  1.44624 -0.440525 4.02563
RightToes  0.00048216 0.542163 -0.142577
Spine  15.3836 -1.52076 -3.99689
Spine1  3.43907 -2.70192 2.21769
HEad  7.26454 15.291 -3.1453
LeftShoulder1  7.67769 -11.3363 -45.0797
LeftArm  -10.4833 10.9069 -26.7043
LeftForeArm  24.2649 -10.7071 -5.3932
LeftHand  -0.25398 0.0180481 5.50724
RightShoulder  4.31801 7.71749 32.5384
RightArm  -3.76797 -22.551 36.7209
RightForeArm  2.15429 33.7905 7.41146
RightHand  -0.396436 -2.17378 -13.906
LeftUpLeg  -4.57933 17.6234 -4.22184
LeftLeg  17.3068 14.5056 0.699756
LeftFoot  -10.9934 0.0624875 1.14318
LeftToes  1.06244e-005 4.65854e-005 -8.18505e-006
546
root  -38.3416 40.3677 -26.6395 1.19035 29.1947 5.69212
RightUpLeg  -19.8911 -9.42126 -11.469
RightLeg  46.7621 -7.70735 -9.01144
RightFoot  -0.762966 -0.336848 3.59134
RightToes  0.00048216 0.542163 -0.142577
Spine  15.9301 -1.66616 -4.52208
Spine1  2.97093 -3.08954 3.07587
HEad  6.92489 14.7936 -2.49389
LeftShoulder1  7.69717 -11.413 -44.9568
LeftArm  -9.98378 11.5937 -26.6774
LeftForeArm  23.7143 -11.8068 -5.33068
LeftHand  -0.25398 0.0180481 5.50724
RightShoulder  4.28427 7.6728 32.3902
RightArm  -2.1483 -22.405 37.2399
RightForeArm  4.97434 37.3278 8.25697
RightHand  -0.278456 -2.98563 -12.7349
LeftUpLeg  -1.96382 12.2697 -3.87932
LeftLeg  14.9921 19.323 -0.530524
LeftFoot  -11.5176 0.0702539 0.821213
LeftToes  1.06244e-005 4.65854e-005 -8.18505e-006
547
root  -37.4871 40.3814 -26.1122 1.13995 29.9687 5.60141
RightUpLeg  -22.1941 -12.1565 -6.88843
RightLeg  42.5121 -7.97296 -8.02877
RightFoot  -1.97783 -0.308434 3.59301
RightToes  0.00048216 0.542163 -0.142577
Spine  16.2728 -1.88453 -5.30487
Spine1  2.83737 -3.59745 3.92434
HEad  6.18791 14.1756 -2.11227
LeftShoulder1  7.83444 -11.6042 -45.1897
LeftArm  -9.44247 12.0906 -26.4075
LeftForeArm  22.5011 -13.0546 -5.20676
LeftHand  -0.25398 0.0180481 5.50724
RightShoulder  4.24667 7.6155 32.2494
RightArm  -1.26372 -22.3021 37.6779
RightForeArm  6.27028 40.7625 9.25853
RightHand  -0.234727 -3.37454 -12.5145
LeftUpLeg  0.367776 8.38649 -4.3166
LeftLeg  13.1453 22.6319 -1.44277
LeftFoot  -12.2947 0.0799378 0.702548
LeftToes  1.06244e-005 4.65854e-005 -8.18505e-006
548
root  -36.5978 40.3105 -25.5271 1.40784 31.0187 6.06134
RightUpLeg  -23.6601 -16.9326 -2.59948
RightLeg  36.2799 -8.78032 -7.11446
RightFoot  -3.00375 -0.315382 4.0828
RightToes  0.00048216 0.542163 -0.142577
Spine  16.2932 -2.18229 -6.44483
Spine1  2.94735 -4.24893 4.8435
HEad  5.3806 13.7046 -1.97494
LeftShoulder1  7.98736 -11.7765 -45.567
LeftArm  -8.9311 12.1063 -26.0915
LeftForeArm  21.6728 -13.8652 -5.13317
LeftHand  -0.25398 0.0180481 5.50724
RightShoulder  4.22387 7.57668 32.1771
RightArm  -1.31989 -22.3481 37.9742
RightForeArm  6.84759 43.6478 10.2282
RightHand  -0.237434 -3.37154 -12.6497
LeftUpLeg  2.6019 5.52566 -5.52033
LeftLeg  11.5995 24.6621 -2.08284
LeftFoot  -13.1075 0.0954925 1.06779
LeftToes  1.06244e-005 4.65854e-005 -8.18505e-006
549
root  -35.6424 40.1535 -24.8645 1.79774 32.1547 7.0031
RightUpLeg  -24.4198 -23.6831 1.47905
RightLeg  28.6309 -8.57105 -5.30753
RightFoot  -3.34014 -0.472129 6.28122
RightToes  0.00048216 0.542163 -0.142577
Spine  16.0086 -2.50516 -7.6174
Spine1  3.14503 -4.86994 5.53324
HEad  5.0445 13.3556 -1.90208
LeftShoulder1  8.12393 -11.9127 -45.95
LeftArm  -8.38172 11.6856 -25.8426
LeftForeArm  21.6585 -13.9932 -5.21181
LeftHand  -0.25398 0.0180481 5.50724
RightShoulder  4.19974 7.52124 32.1498
RightArm  -1.88371 -22.588 38.1374
RightForeArm  7.22768 45.5771 10.9376
RightHand  -0.266656 -3.1285 -12.8558
LeftUpLeg  5.05289 3.77309 -7.27331
LeftLeg  10.3402 25.5285 -2.43611
LeftFoot  -14.2099 0.116174 1.25885
LeftToes  1.06244e-005 4.65854e-005 -8.18505e-006
550
root  -34.5994 39.9508 -24.1156 2.03572 33.133 8.03424
RightUpLeg  -25.2168 -32.4139 6.28666
RightLeg  21.0164 -6.81199 -3.14717
RightFoot  -1.06102 -0.563535 6.39992
RightToes  0.00048216 0.542163 -0.142577
Spine  15.2499 -2.80169 -8.27885
Spine1  3.53285 -5.31753 5.93738
HEad  5.60959 12.9078 -1.77255
LeftShoulder1  8.21871 -12.0187 -46.1764
LeftArm  -7.92831 11.1469 -25.9275
LeftForeArm  22.4582 -13.614 -5.38878
LeftHand  -0.25398 0.0180481 5.50724
RightShoulder  4.13557 7.37694 32.0643
RightArm  -2.28489 -22.9228 38.1982
RightForeArm  7.01007 46.2073 11.2078
RightHand  -0.313785 -2.78468 -13.3412
LeftUpLeg  8.02692 3.06253 -9.09617
LeftLeg  8.9516 25.7244 -2.67777
LeftFoot  -15.3406 0.121451 0.841918
LeftToes  1.06244e-005 4.65854e-005 -8.18505e-006
551
root  -33.4956 39.7437 -23.2895 2.07658 33.9516 8.771
RightUpLeg  -25.3412 -38.3356 9.91916
RightLeg  15.4929 -9.13271 -1.33804
RightFoot  2.07523 0.195033 -1.4599
RightToes  0.00048216 0.542163 -0.142577
Spine  13.9181 -3.05075 -8.30342
Spine1  4.2378 -5.6757 6.4302
HEad  6.79982 12.2593 -1.71766
LeftShoulder1  8.20096 -12.0107 -46.0976
LeftArm  -7.73768 10.9302 -26.6305
LeftForeArm  23.6349 -13.3462 -5.47427
LeftHand  -0.25398 0.0180481 5.50724
RightShoulder  4.01206 7.12302 31.8081
RightArm  -2.35595 -23.2448 38.1793
RightForeArm  6.11014 45.4932 10.9863
RightHand  -0.360487 -2.50166 -13.9837
LeftUpLeg  11.177 2.40412 -10.6554
LeftLeg  7.62811 26.2492 -2.88545
LeftFoot  -16.0916 0.120883 0.563623
LeftToes  1.06244e-005 4.65854e-005 -8.18505e-006
552
root  -32.3335 39.4983 -22.3938 1.86401 34.5261 8.9313
RightUpLeg  -22.0654 -33.1214 7.21259
RightLeg  13.7035 -22.2492 0.208891
RightFoot  1.59948 1.59072 -14.2356
RightToes  0.00048216 0.542163 -0.142577
Spine  12.2544 -3.26622 -7.3759
Spine1  5.00722 -5.89025 6.73441
HEad  7.76678 11.5034 -1.84073
LeftShoulder1  8.11378 -11.8975 -45.9378
LeftArm  -7.40609 11.2814 -27.5895
LeftForeArm  24.3302 -13.829 -5.37453
LeftHand  -0.25398 0.0180481 5.50724
RightShoulder  3.88422 6.84759 31.5774
RightArm  -2.50088 -23.5586 37.9433
RightForeArm  5.1078 43.6238 10.3391
RightHand  -0.395804 -2.28437 -14.3676
LeftUpLeg  13.6457 2.82724 -11.1999
LeftLeg  8.13065 25.7667 -2.78751
LeftFoot  -17.2497 0.123038 0.406603
LeftToes  1.06244e-005 4.65854e-005 -8.18505e-006
553
root  -31.0874 39.2158 -21.4614 1.12244 34.165 8.1275
RightUpLeg  -21.3012 -31.6111 7.44237
RightLeg  16.4506 -26.4996 -2.45695
RightFoot  -2.96053 1.60438 -21.5625
RightToes  0.00048216 0.542163 -0.142577
Spine  10.6501 -3.36435 -4.43834
Spine1  5.36612 -5.47868 5.73216
HEad  8.15849 10.7492 -2.00328
LeftShoulder1  8.12649 -11.8418 -46.1832
LeftArm  -6.39969 12.1032 -28.0022
LeftForeArm  24.0372 -15.0633 -5.16788
LeftHand  -0.25398 0.0180481 5.50724
RightShoulder  3.8679 6.72361 31.8723
RightArm  -2.96411 -23.7221 37.2378
RightForeArm  4.04476 40.3592 9.27267
RightHand  -0.461754 -1.76118 -14.49
LeftUpLeg  15.2147 11.1499 -8.24954
LeftLeg  12.1238 17.2874 -1.71102
LeftFoot  -19.041 -0.0030209 -1.60635
LeftToes  1.06244e-005 4.65854e-005 -8.18505e-006
554
root  -29.8227 39.0209 -20.562 -0.0932159 32.0528 6.29243
RightUpLeg  -22.1186 -34.8513 10.4533
RightLeg  20.7188 -20.3217 -6.66246
RightFoot  -7.67538 0.617576 -20.2436
RightToes  0.00048216 0.542163 -0.142577
Spine  9.52742 -3.09787 0.578555
Spine1  5.07225 -4.17902 3.2989
HEad  8.39916 10.223 -2.05463
LeftShoulder1  8.2647 -11.8946 -46.8246
LeftArm  -5.31938 13.2209 -27.8667
LeftForeArm  23.1761 -16.3577 -4.92423
LeftHand  -0.25398 0.0180481 5.50724
RightShoulder  4.00685 6.85281 32.7421
RightArm  -3.40121 -23.2738 36.2669
RightForeArm  2.05834 35.1295 7.79946
RightHand  -0.58722 -0.789696 -14.7089
LeftUpLeg  15.8797 28.0986 -1.45269
LeftLeg  19.5142 0.249036 0.0970659
LeftFoot  -18.6714 -0.294913 -6.62237
LeftToes  1.06244e-005 4.65854e-005 -8.18505e-006
